<svg width="60" height="60" viewBox="0 0 60 60" fill="none" xmlns="http://www.w3.org/2000/svg">
<g clip-path="url(#clip0_8_19)">
<path d="M44.8498 33.5975L39.0619 19.4077C38.4918 18.093 38.0656 17.1531 37.1976 17.1531C36.3194 17.1583 35.9035 18.1495 35.3745 19.4026L31.8514 27.5939L28.3694 19.4128C27.8405 18.1546 27.4245 17.1634 26.5463 17.1583C25.6835 17.1634 25.2521 18.0981 24.6769 19.4282L18.889 33.6129C18.4987 34.6093 18.5706 35.6107 19.0841 36.3605C19.5977 37.1103 20.5067 37.5417 21.5749 37.5417H24.1222L24.1325 40.7721C24.1325 41.9327 25.0775 42.8726 26.233 42.8726H26.9623C28.1229 42.8726 29.0627 41.9276 29.0627 40.7721V39.1903C29.0627 39.1338 29.0627 39.0773 29.0627 39.0208V37.5417H31.6254C31.7128 37.5417 31.7949 37.5417 31.872 37.5315C31.9541 37.5366 32.0312 37.5417 32.1185 37.5417H34.6812V39.0208C34.6812 39.0773 34.676 39.1338 34.676 39.1903V40.7721C34.676 41.9327 35.621 42.8726 36.7765 42.8726H37.5058C38.6664 42.8726 39.6114 41.9276 39.6114 40.7721L39.6217 37.5417H42.169C43.2372 37.5417 44.1462 37.1103 44.6546 36.3605C45.1682 35.6107 45.2401 34.6093 44.8447 33.6027M29.412 35.9702H27.4861V40.7721C27.4912 41.0648 27.255 41.301 26.9623 41.301H26.233C25.9403 41.301 25.6989 41.0648 25.6989 40.7721L25.6886 38.8565V35.9702H21.5698C21.0203 35.9702 20.5992 35.7956 20.3783 35.4721C20.1575 35.1536 20.1472 34.6966 20.3424 34.1933L26.12 20.0394C26.197 19.8596 26.3665 19.4693 26.5309 19.1406C26.6387 19.3666 26.7671 19.6593 26.9212 20.0188L30.9938 29.602L29.4325 33.6078C29.1038 34.4501 29.0987 35.2718 29.412 35.9651M32.8272 35.4361C32.6526 35.7186 32.3085 35.8932 31.872 35.9445C31.4303 35.8932 31.0862 35.7186 30.9116 35.4361C30.7113 35.1177 30.7062 34.6709 30.9013 34.1779L31.8566 31.723L32.8426 34.183C33.0326 34.676 33.0326 35.1228 32.8323 35.4412M43.3604 35.4721C43.1396 35.7905 42.7185 35.9702 42.169 35.9702H38.0502L38.0399 40.7721C38.0399 41.0648 37.7985 41.301 37.5058 41.301H36.7765C36.4838 41.301 36.2424 41.0648 36.2424 40.7721V35.9702H34.3217C34.6298 35.2769 34.6247 34.4552 34.296 33.6129L32.6885 29.602L36.8125 20.0188C36.9614 19.6593 37.0949 19.3666 37.1976 19.1406C37.362 19.4693 37.5263 19.8545 37.6034 20.0188L43.381 34.1779C43.5813 34.6863 43.571 35.1485 43.3502 35.4669" fill="white"/>
<path d="M47.9517 44.4081C43.9407 48.7221 38.2145 51.4234 31.8565 51.4234C31.1837 51.4234 30.5212 51.3926 29.8639 51.331C27.9123 51.8497 25.8632 52.127 23.7473 52.127C20.9124 52.127 18.2008 51.6289 15.6792 50.7198C20.0188 56.3639 26.839 60 34.5117 60C47.6281 60 58.259 49.3692 58.259 36.2527C58.259 35.1947 58.1871 34.1522 58.0536 33.1302C55.9993 37.9012 52.43 41.866 47.9517 44.4081Z" fill="url(#paint0_linear_8_19)"/>
<path d="M22.0628 4.68886C22.6175 4.64778 23.1824 4.62724 23.7473 4.62724C28.0459 4.62724 32.0825 5.77249 35.5593 7.77026C42.6209 8.96687 48.5372 13.5325 51.5929 19.7569C55.0389 23.3211 57.3756 27.9637 58.0536 33.1302C59.2912 30.2542 59.9794 27.0804 59.9794 23.7525C59.9794 10.6308 49.3486 0 36.2321 0C30.9218 0 26.0173 1.74099 22.0628 4.68886Z" fill="url(#paint1_linear_8_19)"/>
<path d="M53.8424 29.4376C53.8424 35.2204 51.6083 40.4845 47.9569 44.4081C52.4403 41.8608 56.0096 37.8961 58.0587 33.125C57.3808 27.9637 55.039 23.3211 51.5981 19.7518C53.0361 22.674 53.8424 25.9608 53.8424 29.4376Z" fill="#8F6E0E"/>
<path d="M0 28.3797C0 38.6613 6.5377 47.4176 15.6843 50.7199C12.6029 46.714 10.7644 41.6965 10.7644 36.2475C10.7644 36.0473 10.7644 35.8521 10.7695 35.6569C10.1892 33.6848 9.87589 31.5998 9.87589 29.4376C9.87589 25.134 11.1136 21.1179 13.2552 17.7283C14.6366 12.4335 17.8002 7.86271 22.0628 4.68887C9.73722 5.55167 0 15.8281 0 28.3797Z" fill="url(#paint2_linear_8_19)"/>
<path d="M29.8639 51.331C20.7686 50.5144 13.2705 44.1565 10.7695 35.6621C10.7695 35.8572 10.7643 36.0575 10.7643 36.2527C10.7643 41.7016 12.5978 46.714 15.6792 50.725C18.1957 51.634 20.9124 52.1322 23.7473 52.1322C25.8632 52.1322 27.9123 51.8548 29.8639 51.3361" fill="#007F92"/>
<path d="M13.2552 17.7283C17.148 11.5553 24.0247 7.45701 31.8617 7.45701C33.1251 7.45701 34.3576 7.56486 35.5645 7.77029C32.0876 5.77251 28.051 4.62726 23.7525 4.62726C23.1875 4.62726 22.6226 4.6478 22.068 4.68889C17.8002 7.86273 14.6418 12.4386 13.2552 17.7283Z" fill="#006D32"/>
</g>
<defs>
<linearGradient id="paint0_linear_8_19" x1="15.6843" y1="46.56" x2="58.2641" y2="46.56" gradientUnits="userSpaceOnUse">
<stop stop-color="#00A8D7"/>
<stop offset="0.39" stop-color="#00A6D4"/>
<stop offset="0.62" stop-color="#009FCC"/>
<stop offset="0.81" stop-color="#0095BE"/>
<stop offset="0.97" stop-color="#0086AA"/>
<stop offset="1" stop-color="#0083A6"/>
</linearGradient>
<linearGradient id="paint1_linear_8_19" x1="22.0628" y1="16.5625" x2="59.9794" y2="16.5625" gradientUnits="userSpaceOnUse">
<stop stop-color="#F7A600"/>
<stop offset="0.38" stop-color="#F4A400"/>
<stop offset="0.59" stop-color="#EC9F00"/>
<stop offset="0.77" stop-color="#DE9500"/>
<stop offset="0.92" stop-color="#CA8800"/>
<stop offset="1" stop-color="#BD8000"/>
</linearGradient>
<linearGradient id="paint2_linear_8_19" x1="0" y1="27.7018" x2="22.0628" y2="27.7018" gradientUnits="userSpaceOnUse">
<stop stop-color="#00A547"/>
<stop offset="0.44" stop-color="#00A245"/>
<stop offset="0.69" stop-color="#009A42"/>
<stop offset="0.9" stop-color="#008C3B"/>
<stop offset="1" stop-color="#018237"/>
</linearGradient>
<clipPath id="clip0_8_19">
<rect width="60" height="60" fill="white"/>
</clipPath>
</defs>
</svg>
